<?xml version="1.0" encoding="UTF-8"?> <svg xmlns="http://www.w3.org/2000/svg" width="32" height="32" viewBox="0 0 32 32" fill="none"><g clip-path="url(#clip0_2159_17092)"><path fill-rule="evenodd" clip-rule="evenodd" d="M16.0635 31.8524H15.9365C9.58228 31.8524 5.86718 31.2172 3.28008 28.6954C0.614053 25.9955 0 22.3276 0 16.0382V15.8603C0 9.57094 0.614053 5.87806 3.28008 3.20313C5.8922 0.683184 9.58228 0.0460205 15.9346 0.0460205H16.0635C22.3907 0.0460205 26.1058 0.683184 28.72 3.20313C31.386 5.90293 32 9.57094 32 15.8603V16.0382C32 22.3295 31.3841 26.0223 28.72 28.6954C26.1058 31.2153 22.4177 31.8524 16.0635 31.8524ZM28.1137 15.4771C28.2371 15.4828 28.3373 15.5843 28.3373 15.7069H28.3354V16.2203C28.3354 16.3448 28.2352 16.4463 28.1118 16.4502C23.6854 16.6168 20.9932 17.1762 19.1065 19.0515C17.2218 20.9249 16.6591 23.5972 16.4895 27.9896C16.4837 28.1121 16.3816 28.2117 16.2582 28.2117H15.7398C15.6146 28.2117 15.5124 28.1121 15.5086 27.9896C15.339 23.5972 14.7763 20.9249 12.8916 19.0515C11.0069 17.1781 8.31277 16.6168 3.88619 16.4502C3.76285 16.4444 3.66265 16.3429 3.66265 16.2203V15.7069C3.66265 15.5824 3.76285 15.4809 3.88619 15.4771C8.31277 15.3104 11.0049 14.7511 12.8916 12.8757C14.7801 10.9985 15.3429 8.31667 15.5105 3.90895C15.5163 3.78635 15.6184 3.68673 15.7418 3.68673H16.2582C16.3835 3.68673 16.4856 3.78635 16.4895 3.90895C16.6571 8.31859 17.2199 10.9985 19.1084 12.8757C20.9932 14.7492 23.6873 15.3104 28.1137 15.4771Z" fill="white"></path></g><defs><clipPath id="clip0_2159_17092"><rect width="32" height="32" fill="white"></rect></clipPath></defs></svg> 