<?xml version="1.0" encoding="UTF-8"?> <svg xmlns="http://www.w3.org/2000/svg" width="33" height="33" viewBox="0 0 33 33" fill="none"><g clip-path="url(#clip0_401_2435)"><mask id="mask0_401_2435" style="mask-type:luminance" maskUnits="userSpaceOnUse" x="0" y="1" width="33" height="32"><path d="M24.5132 1.00781H8.43391C4.22742 1.00781 0.817383 4.41785 0.817383 8.62434V24.7037C0.817383 28.9102 4.22742 32.3202 8.43391 32.3202H24.5132C28.7197 32.3202 32.1298 28.9102 32.1298 24.7037V8.62434C32.1298 4.41785 28.7197 1.00781 24.5132 1.00781Z" fill="white"></path></mask><g mask="url(#mask0_401_2435)"><path d="M32.2073 1.00818H0.817383V32.3981H32.2073V1.00818Z" fill="#100943"></path><path d="M32.1288 16.6639C40.7755 16.6639 47.785 9.65442 47.785 1.00775C47.785 -7.63894 40.7755 -14.6484 32.1288 -14.6484C23.4822 -14.6484 16.4727 -7.63894 16.4727 1.00775C16.4727 9.65442 23.4822 16.6639 32.1288 16.6639Z" fill="#ED143B"></path><path d="M20.1589 15.9492H10.9081V12.2885H20.1589C20.6993 12.2885 21.075 12.3827 21.2635 12.5472C21.452 12.7117 21.5689 13.0167 21.5689 13.4623V14.7767C21.5689 15.2464 21.452 15.5514 21.2635 15.7159C21.075 15.8804 20.6993 15.9506 20.1589 15.9506V15.9492ZM20.7935 8.83734H6.98486V24.4922H10.9081V19.3989H18.1381L21.5689 24.4922H25.9621L22.1796 19.3751C23.574 19.1684 24.2003 18.741 24.7167 18.0368C25.2332 17.3325 25.4921 16.2065 25.4921 14.7036V13.5299C25.4921 12.6386 25.3978 11.9343 25.2332 11.3945C25.0686 10.8546 24.7871 10.3851 24.3875 9.96337C23.9653 9.56413 23.4953 9.28298 22.931 9.0946C22.3667 8.93013 21.6617 8.83594 20.7935 8.83594V8.83734Z" fill="white"></path></g></g><defs><clipPath id="clip0_401_2435"><rect width="32" height="32" fill="white" transform="translate(0.5 0.5)"></rect></clipPath></defs></svg> 