<?xml version="1.0" encoding="UTF-8"?> <svg xmlns="http://www.w3.org/2000/svg" width="33" height="33" viewBox="0 0 33 33" fill="none"><mask id="mask0_2080_3094" style="mask-type:luminance" maskUnits="userSpaceOnUse" x="0" y="0" width="32" height="32"><path d="M31.6832 0H0V32H31.6832V0Z" fill="white"></path></mask><g mask="url(#mask0_2080_3094)"><path d="M0 15.36C0 8.11923 0 4.49885 2.22715 2.24942C4.4543 0 8.03884 0 15.2079 0H16.4752C23.6443 0 27.2289 0 29.456 2.24942C31.6832 4.49885 31.6832 8.11923 31.6832 15.36V16.64C31.6832 23.8808 31.6832 27.5012 29.456 29.7506C27.2289 32 23.6443 32 16.4752 32H15.2079C8.03884 32 4.4543 32 2.22715 29.7506C0 27.5012 0 23.8808 0 16.64V15.36Z" fill="#0077FF"></path><path d="M16.8582 23.0544C9.63709 23.0544 5.51831 18.0544 5.34668 9.73438H8.96385C9.08266 15.841 11.7493 18.4277 13.8615 18.961V9.73438H17.2675V15.001C19.3533 14.7743 21.5445 12.3744 22.2838 9.73438H25.6898C25.1221 12.9877 22.7459 15.3877 21.0561 16.3743C22.7459 17.1743 25.4523 19.2677 26.482 23.0544H22.7327C21.9274 20.521 19.921 18.561 17.2675 18.2943V23.0544H16.8582Z" fill="white"></path></g></svg> 